<svg id="Layer_1" data-name="Layer 1" xmlns="http://www.w3.org/2000/svg" viewBox="0 0 731.89 132.78"><defs><style>.cls-1{fill:#fff;}</style></defs><title>Artboard 70</title><path class="cls-1" d="M0,129.3q0-1.4,1.92-5.58L61,4.88a5.32,5.32,0,0,1,2.53-2.53,11.15,11.15,0,0,1,4.09-.61h34.33a3.17,3.17,0,0,1,3,1.48,13.52,13.52,0,0,1,1.4,4.1L131.56,126a5.06,5.06,0,0,1,.18,1.56q0,3.49-2.79,3.49H94.79c-1.62,0-2.73-1.28-3.31-3.83l-4-19.7a2,2,0,0,0-.61-1.21,2.76,2.76,0,0,0-1.66-.35H48.62a3.13,3.13,0,0,0-1.92.52,5.73,5.73,0,0,0-1.39,1.74L34.85,129.3a2.77,2.77,0,0,1-1.3,1.39A6.57,6.57,0,0,1,31,131H2.09C.7,131,0,130.46,0,129.3Zm80.51-53q3,0,2.09-3.48l-6.28-29.1C76.21,42.58,75.8,42,75.1,42q-.69,0-1.56,1.56l-14.47,30a4.21,4.21,0,0,0-.52,1.74c0,.69.7,1,2.09,1Z"/><path class="cls-1" d="M259.09,128.6c0,1.63-1.16,2.44-3.49,2.44h-34q-4,0-4.88-4.36L202.11,78.24c-.12-.46-.35-.7-.7-.7-.58,0-1.63,1.11-3.14,3.31L183.63,96.54a8.22,8.22,0,0,0-2.26,4.18L177.71,127a4.72,4.72,0,0,1-1.48,3.14,7,7,0,0,1-4.09.87H141.47q-3.84,0-3.14-5.4L155.41,4.71a3.73,3.73,0,0,1,.78-2.44,3.4,3.4,0,0,1,2.18-.53h33.11A2.91,2.91,0,0,1,194,3.22a4.19,4.19,0,0,1,.61,3.23l-6.09,44.08-.18,1c0,.23.06.35.18.35s.37-.29.78-.87a10.69,10.69,0,0,1,1.31-1.57l38.68-45a6.93,6.93,0,0,1,2.87-2.35,16.63,16.63,0,0,1,4.62-.44h30c2.32,0,3.48.59,3.48,1.74a3.87,3.87,0,0,1-1.39,2.45l-35.2,36.76a12.09,12.09,0,0,0-1.92,2.7,4.67,4.67,0,0,0-.18,2.88l27,78.24A5.47,5.47,0,0,1,259.09,128.6Z"/><path class="cls-1" d="M322.69,1.74q3,0,2.45,4.71L308.23,127c-.23,1.74-.7,2.85-1.39,3.31s-2.09.7-4.18.7H272.34q-3.66,0-3.66-3.66l.17-1.74L285.93,4.71a3.73,3.73,0,0,1,.78-2.44,3.4,3.4,0,0,1,2.18-.53Z"/><path class="cls-1" d="M319.05,130.43a2.78,2.78,0,0,1-.7-2.18,30.58,30.58,0,0,1,.35-3.13L335.61,4.71c.11-1.4.37-2.24.78-2.53a4.84,4.84,0,0,1,2.53-.44h48.79q3.82,0,4.7,4l10.46,55.07c0,.69.23,1,.69,1s.7-.35,1.05-1L429.18,5.93a7.76,7.76,0,0,1,1.92-3.32,4.19,4.19,0,0,1,2.78-.87h51.58q2.79,0,2.27,2.79L470.48,127c-.24,1.74-.67,2.85-1.31,3.31s-2,.7-4.09.7H435.63a6.44,6.44,0,0,1-3.58-.78,3.3,3.3,0,0,1-1.13-2.88,7,7,0,0,1,.18-1.74l10.8-76.5v-.7c0-.46-.12-.69-.35-.69-.46,0-.93.58-1.39,1.74l-36.42,79.28a3.81,3.81,0,0,1-1.57,1.83,5.4,5.4,0,0,1-2.44.44H381.44a3.82,3.82,0,0,1-2.62-.78,6.18,6.18,0,0,1-1.39-3.23L363.31,50c-.35-1.28-.81-1.92-1.39-1.92s-.82.53-1.05,1.57l-11.15,78.59a3,3,0,0,1-1,2.27,4.68,4.68,0,0,1-2.53.52H321.32A3.39,3.39,0,0,1,319.05,130.43Z"/><path class="cls-1" d="M481.12,130.43a3.05,3.05,0,0,1-.52-2,12.58,12.58,0,0,1,.17-2.27L497.67,5.23a3.63,3.63,0,0,1,1.22-2.7,4.84,4.84,0,0,1,3-.79h51.93q24.91,0,38.07,7.93T605,32.59q0,22.65-27,31.71c-.82.23-1.28.55-1.4,1s.18.73.87,1q11.68,4,17,10.28t5.32,15.68q0,22-16.55,30.41T540.37,131H483A2.44,2.44,0,0,1,481.12,130.43Zm60.12-25.53a18,18,0,0,0,8.71-2.26,19.91,19.91,0,0,0,6.88-6.1A14.5,14.5,0,0,0,559.54,88a7.65,7.65,0,0,0-3.23-6.54c-2.15-1.56-5.2-2.35-9.15-2.35H529.91a3.14,3.14,0,0,0-2.44.79,5.67,5.67,0,0,0-1,2.7l-2.79,19.51-.18,1.22c0,.7.15,1.14.44,1.31a3.63,3.63,0,0,0,1.66.26Zm8.19-52.62a16.35,16.35,0,0,0,11.15-4.53,14.22,14.22,0,0,0,5.06-11,7.53,7.53,0,0,0-3.4-6.54c-2.27-1.56-5.32-2.35-9.15-2.35H537.93a5.12,5.12,0,0,0-3.23.79,4.56,4.56,0,0,0-1.3,2.87l-2.27,18L531,50.88c0,.59.14,1,.43,1.13a3,3,0,0,0,1.48.27Z"/><path class="cls-1" d="M631.26,126.07A45.71,45.71,0,0,1,612.18,107q-6.63-12.37-6.62-29.27a83.35,83.35,0,0,1,.87-12.9q2.77-19.51,12.37-34.24A65.66,65.66,0,0,1,643.37,7.93,70.35,70.35,0,0,1,676.82,0q16.9,0,29.37,6.88A46.58,46.58,0,0,1,725.27,26.4q6.62,12.63,6.62,29.54A81.06,81.06,0,0,1,731,68.66q-2.79,19.52-12.29,34a65.11,65.11,0,0,1-24.39,22.3A70.54,70.54,0,0,1,661,132.78Q643.72,132.78,631.26,126.07Zm49.22-29.88q6.63-9.41,9.59-30.84a138.41,138.41,0,0,0,1.39-17.26q0-11.33-3.66-16.29t-11.85-5q-11.85,0-18.64,10t-9.93,32.32A127.52,127.52,0,0,0,646,85.73q0,10.81,3.75,15.34T662,105.6Q673.86,105.6,680.48,96.19Z"/></svg>